<svg xmlns="http://www.w3.org/2000/svg" width="16" height="16" viewBox="0 0 16 16" aria-hidden="true">
  <rect width="16" height="16" fill="#f7931a"/>
  <path fill="#fff" d="M11.2 7.1c.2-1.3-.8-2-2.1-2.5l.4-1.7-.9-.2-.4 1.6c-.2 0-.4-.1-.6-.1l.4-1.7-.9-.2-.4 1.7c-.2 0-.3-.1-.5-.1l-1.2-.3-.3 1 .7.2c.4.1.4.4.4.5l-.4 1.8c0 0 .1 0 .1.1h-.2l-.6 2.4c0 .1-.1.3-.4.2l-.7-.2-.5 1.1 1.1.3c.2.1.4.1.6.2l-.4 1.8.9.2.4-1.7c.2 0 .4.1.6.1l-.4 1.7.9.2.4-1.7c1.3.5 2.3.3 2.7-1 .3-1.3-.1-2.1-.9-2.6.6-.1 1.1-.6 1.3-1.5zm-2.3 2.6c-.2.9-1.5.4-1.9.3l.3-1.4c.5.1 1.7.4 1.6 1.1zm.2-2.7c-.2.8-1.2.4-1.5.3l.3-1.3c.4.1 1.3.3 1.2 1z"/>
</svg>
